<?xml version="1.0" encoding="utf-8"?>
<!-- Generator: Adobe Illustrator 25.4.1, SVG Export Plug-In . SVG Version: 6.00 Build 0)  -->
<svg version="1.1" id="Слой_1" xmlns:svgjs="http://svgjs.com/svgjs"
	 xmlns="http://www.w3.org/2000/svg" xmlns:xlink="http://www.w3.org/1999/xlink" x="0px" y="0px" viewBox="0 0 512 512"
	 style="enable-background:new 0 0 512 512;" xml:space="preserve">
<style type="text/css">
	.st0{fill:#C5D3DD;}
	.st1{fill:#B0BCC9;}
	.st2{fill:#FF525D;}
	.st3{fill:#E54E5C;}
</style>
<g>
	<g>
		<g>
			<g>
				<path class="st0" d="M96.2,92.7c-14.3,12.9-36.4,12.5-50.2-1.3L10.7,56c-0.7-0.7-1.4-1.5-2.1-2.2C3.1,65.7,0,78.9,0,92.9
					c0,51.3,41.6,92.9,92.9,92.9c12.1,0,23.6-2.3,34.2-6.5L415.6,494c21.3,23.3,57.8,24.1,80.1,1.7c0.6-0.6,1.2-1.2,1.7-1.8
					L297.1,275.1L96.2,92.7z"/>
			</g>
			<path class="st1" d="M494.8,416.3L182,119c2.4-8.3,3.7-17.1,3.7-26.1C185.8,41.6,144.2,0,92.9,0C82.3,0,72.1,1.8,62.7,5
				l34.9,34.9c14.2,14.2,14.2,37.3,0,51.5c-0.4,0.4-0.9,0.9-1.3,1.3l401.2,401.2C517.8,471.8,516.7,437.2,494.8,416.3L494.8,416.3z"
				/>
		</g>
		<g>
			<g>
				<path class="st2" d="M17.2,416.3c-22.6,21.5-23.1,57.4-1,79.4c22.3,22.3,58.8,21.5,80.1-1.7l108.8-118.7l-27.1-48.6l-43.5-21.9
					L17.2,416.3z"/>
				<path class="st2" d="M369.6,135.9l-43.1-13.6l-102.8,97.9l22.5,46.4l42,18.2l96-104.6L369.6,135.9z"/>
			</g>
		</g>
		<g>
			<path class="st3" d="M16.2,495.8c22.3,22.3,58.8,21.5,80.1-1.7l108.8-118.7l-25.4-45.6L16.2,495.8
				C16.2,495.7,16.2,495.7,16.2,495.8z"/>
			<path class="st3" d="M244.8,263.7l1.4,2.9l42,18.2l96-104.6l-14.3-43.3L244.8,263.7z"/>
		</g>
		<path class="st0" d="M353.1,55.8c11.1,11.1,11.1,29.1,0,40.2c0,0-25.7,25.7-26.6,26.4l57.7,57.8l24-24l42.8,60.1L512,155
			l-58.2-44.5l16.1-16.1l-63.1-63.1c-30.8-30.8-81-30.8-111.8,0l-17.5,17.5L298.7,70l14.2-14.2C324,44.7,342,44.7,353.1,55.8
			L353.1,55.8z"/>
		<path class="st1" d="M453.8,110.5l16.1-16.1l-29.3-29.3l-85.1,86.3l28.7,28.7l24-24l42.8,60.1L512,155L453.8,110.5z"/>
		<path class="st2" d="M223.7,220.2l-89.1,84.5l70.6,70.6l83.1-90.6L223.7,220.2z"/>
		<g>
			<path class="st3" d="M205.2,375.3l83.1-90.6L256,252.4l-86.2,87.4L205.2,375.3z"/>
		</g>
	</g>
</g>
</svg>
